<svg width="50" height="50" viewBox="0 0 50 50" fill="none" xmlns="http://www.w3.org/2000/svg">
<rect width="50" height="50" fill="#818A91"/>
<path d="M32.7812 30.8344L29.6656 27.7188C29.525 27.5781 29.3344 27.5 29.1344 27.5H28.625C29.4875 26.3969 30 25.0094 30 23.5C30 19.9094 27.0906 17 23.5 17C19.9094 17 17 19.9094 17 23.5C17 27.0906 19.9094 30 23.5 30C25.0094 30 26.3969 29.4875 27.5 28.625V29.1344C27.5 29.3344 27.5781 29.525 27.7188 29.6656L30.8344 32.7812C31.1281 33.075 31.6031 33.075 31.8938 32.7812L32.7781 31.8969C33.0719 31.6031 33.0719 31.1281 32.7812 30.8344ZM23.5 27.5C21.2906 27.5 19.5 25.7125 19.5 23.5C19.5 21.2906 21.2875 19.5 23.5 19.5C25.7094 19.5 27.5 21.2875 27.5 23.5C27.5 25.7094 25.7125 27.5 23.5 27.5Z" fill="white"/>
</svg>
