<svg width="14" height="15" viewBox="0 0 14 15" fill="none" xmlns="http://www.w3.org/2000/svg">
<g clip-path="url(#clip0_1_678)">
<g clip-path="url(#clip1_1_678)">
<path d="M13.7238 0.892818C13.5829 0.822186 13.4168 0.822186 13.2759 0.892818L0.276323 7.39261C0.0293882 7.5162 -0.0705986 7.81655 0.0529714 8.06348C0.123311 8.20404 0.25567 8.30336 0.410293 8.33157L5.56962 9.27003L6.50808 14.4294C6.54649 14.6408 6.71582 14.8041 6.92857 14.8348C6.95209 14.8382 6.97582 14.8399 6.99955 14.8399C7.18906 14.8399 7.36232 14.7329 7.44704 14.5634L13.9469 1.56378C14.0705 1.31691 13.9707 1.01651 13.7238 0.892818Z" fill="#777777"/>
</g>
</g>
<defs>
<clipPath id="clip0_1_678">
<rect width="14" height="14" fill="white" transform="translate(0 0.839844)"/>
</clipPath>
<clipPath id="clip1_1_678">
<rect width="14" height="14" fill="white" transform="translate(0 0.839844)"/>
</clipPath>
</defs>
</svg>
