<svg width="14" height="15" viewBox="0 0 14 15" fill="none" xmlns="http://www.w3.org/2000/svg">
<g clip-path="url(#clip0_1_701)">
<g clip-path="url(#clip1_1_701)">
<path d="M9.9452 0.839844H4.05481C3.49108 0.839844 3.03601 1.29695 3.03601 1.85967V13.821C3.03601 14.3832 3.49108 14.8398 4.05481 14.8398H9.9452C10.5079 14.8398 10.964 14.3832 10.964 13.821V1.85967C10.964 1.29695 10.5079 0.839844 9.9452 0.839844ZM5.54654 1.45919H8.45449C8.52796 1.45919 8.58765 1.56887 8.58765 1.70458C8.58765 1.84028 8.52796 1.95048 8.45449 1.95048H5.54654C5.47257 1.95048 5.4139 1.84028 5.4139 1.70458C5.4139 1.56887 5.47257 1.45919 5.54654 1.45919ZM7.00052 13.8333C6.64187 13.8333 6.35005 13.5415 6.35005 13.1823C6.35005 12.8232 6.64187 12.5324 7.00052 12.5324C7.35814 12.5324 7.64996 12.8232 7.64996 13.1823C7.64996 13.5415 7.35814 13.8333 7.00052 13.8333ZM10.2008 11.6044H3.79973V2.56064H10.2008V11.6044Z" fill="#777777"/>
</g>
</g>
<defs>
<clipPath id="clip0_1_701">
<rect width="14" height="14" fill="white" transform="translate(0 0.839844)"/>
</clipPath>
<clipPath id="clip1_1_701">
<rect width="14" height="14" fill="white" transform="translate(0 0.839844)"/>
</clipPath>
</defs>
</svg>
