<svg width="14" height="15" viewBox="0 0 14 15" fill="none" xmlns="http://www.w3.org/2000/svg">
<g clip-path="url(#clip0_1_738)">
<g clip-path="url(#clip1_1_738)">
<path d="M12.6875 2.58984H1.31251C0.588747 2.58984 0 3.17859 0 3.90235V11.7774C0 12.5011 0.588747 13.0899 1.31251 13.0899H12.6875C13.4113 13.0899 14 12.5011 14 11.7774V3.90235C14 3.17859 13.4113 2.58984 12.6875 2.58984ZM12.6875 3.46484C12.7469 3.46484 12.8035 3.47717 12.8552 3.49871L7 8.57343L1.14479 3.49871C1.19649 3.4772 1.25304 3.46484 1.31248 3.46484H12.6875ZM12.6875 12.2148H1.31251C1.07112 12.2148 0.874996 12.0187 0.874996 11.7773V4.42315L6.71331 9.48303C6.79578 9.55437 6.89789 9.58984 7 9.58984C7.10211 9.58984 7.20422 9.5544 7.28669 9.48303L13.125 4.42315V11.7774C13.125 12.0187 12.9289 12.2148 12.6875 12.2148Z" fill="#777777"/>
</g>
</g>
<defs>
<clipPath id="clip0_1_738">
<rect width="14" height="14" fill="white" transform="translate(0 0.839844)"/>
</clipPath>
<clipPath id="clip1_1_738">
<rect width="14" height="14" fill="white" transform="translate(0 0.839844)"/>
</clipPath>
</defs>
</svg>
