<svg width="81" height="21" viewBox="0 0 81 21" fill="none" xmlns="http://www.w3.org/2000/svg">
<path d="M21.5598 7.94421H29.6464V9.44433H26.4667V17.8773H24.7183V9.44433H21.5527V7.94421H21.5598ZM29.3009 10.6851H30.7956V12.0731H30.8238C30.8731 11.8768 30.9648 11.6875 31.0987 11.5052C31.2327 11.323 31.3948 11.1477 31.5852 11.0005C31.7756 10.8463 31.9871 10.7271 32.2197 10.629C32.4524 10.5379 32.6921 10.4888 32.9318 10.4888C33.1151 10.4888 33.249 10.4958 33.3195 10.5028C33.3901 10.5098 33.4606 10.5239 33.5381 10.5309V12.059C33.4253 12.038 33.3125 12.024 33.1926 12.01C33.0728 11.9959 32.96 11.9889 32.8472 11.9889C32.5793 11.9889 32.3255 12.045 32.0858 12.1502C31.8461 12.2553 31.6416 12.4165 31.4653 12.6198C31.2891 12.8301 31.1481 13.0825 31.0423 13.3909C30.9366 13.6993 30.8872 14.0498 30.8872 14.4494V17.8702H29.2939V10.6851L29.3009 10.6851ZM40.8633 17.8773H39.2981V16.8748H39.2699C39.0725 17.2394 38.7835 17.5268 38.3957 17.7441C38.0079 17.9614 37.6131 18.0735 37.2113 18.0735C36.2595 18.0735 35.5686 17.8422 35.1456 17.3725C34.7225 16.9029 34.511 16.1949 34.511 15.2485V10.6851H36.1044V15.0943C36.1044 15.7252 36.2242 16.1738 36.471 16.4332C36.7107 16.6926 37.0562 16.8258 37.4933 16.8258C37.8317 16.8258 38.1067 16.7767 38.3323 16.6716C38.5579 16.5664 38.7412 16.4332 38.8751 16.258C39.0161 16.0897 39.1148 15.8794 39.1783 15.6411C39.2417 15.4028 39.2699 15.1434 39.2699 14.863V10.6921H40.8633V17.8773ZM43.5776 15.571C43.627 16.0336 43.8032 16.3561 44.1064 16.5454C44.4166 16.7276 44.7832 16.8258 45.2133 16.8258C45.3613 16.8258 45.5305 16.8117 45.7209 16.7907C45.9112 16.7697 46.0945 16.7206 46.2567 16.6575C46.4259 16.5944 46.5599 16.4963 46.6727 16.3701C46.7784 16.2439 46.8278 16.0827 46.8207 15.8794C46.8137 15.6761 46.7361 15.5079 46.5951 15.3817C46.4541 15.2485 46.2779 15.1504 46.0593 15.0663C45.8407 14.9892 45.594 14.9191 45.312 14.863C45.03 14.8069 44.748 14.7438 44.4589 14.6807C44.1628 14.6176 43.8737 14.5335 43.5988 14.4424C43.3238 14.3513 43.0771 14.2251 42.8585 14.0639C42.6399 13.9096 42.4637 13.7064 42.3368 13.461C42.2028 13.2157 42.1394 12.9142 42.1394 12.5497C42.1394 12.1572 42.2381 11.8347 42.4284 11.5683C42.6188 11.302 42.8655 11.0917 43.1546 10.9304C43.4507 10.7692 43.775 10.657 44.1346 10.5869C44.4942 10.5239 44.8396 10.4888 45.1639 10.4888C45.5376 10.4888 45.8971 10.5309 46.2356 10.608C46.574 10.6851 46.8842 10.8113 47.1591 10.9935C47.4341 11.1688 47.6597 11.4001 47.843 11.6805C48.0263 11.9609 48.1391 12.3044 48.1885 12.7039H46.5246C46.4471 12.3254 46.2779 12.066 46.0029 11.9399C45.7279 11.8067 45.4107 11.7436 45.0582 11.7436C44.9454 11.7436 44.8114 11.7506 44.6563 11.7716C44.5012 11.7927 44.3602 11.8277 44.2192 11.8768C44.0852 11.9258 43.9724 12.003 43.8737 12.1011C43.7821 12.1992 43.7327 12.3254 43.7327 12.4866C43.7327 12.6829 43.8032 12.8371 43.9372 12.9563C44.0711 13.0755 44.2474 13.1736 44.4659 13.2577C44.6845 13.3348 44.9313 13.4049 45.2133 13.461C45.4953 13.5171 45.7843 13.5802 46.0804 13.6433C46.3695 13.7064 46.6515 13.7905 46.9335 13.8816C47.2155 13.9727 47.4623 14.0989 47.6808 14.2601C47.8994 14.4214 48.0757 14.6176 48.2096 14.856C48.3436 15.0943 48.4141 15.3957 48.4141 15.7462C48.4141 16.1738 48.3154 16.5314 48.118 16.8328C47.9206 17.1272 47.6667 17.3725 47.3565 17.5548C47.0463 17.7371 46.6938 17.8773 46.3131 17.9614C45.9324 18.0455 45.5517 18.0876 45.178 18.0876C44.7198 18.0876 44.2967 18.0385 43.909 17.9333C43.5212 17.8282 43.1828 17.674 42.9008 17.4707C42.6188 17.2604 42.3932 17.001 42.231 16.6926C42.0689 16.3841 41.9843 16.0126 41.9702 15.585H43.5776V15.571ZM48.8371 10.6851H50.0427V8.52604H51.636V10.6851H53.0743V11.8698H51.636V15.7112C51.636 15.8794 51.6431 16.0196 51.6572 16.1458C51.6713 16.265 51.7065 16.3701 51.7559 16.4542C51.8052 16.5384 51.8828 16.6014 51.9885 16.6435C52.0943 16.6856 52.2282 16.7066 52.4115 16.7066C52.5243 16.7066 52.6372 16.7066 52.75 16.6996C52.8628 16.6926 52.9756 16.6786 53.0884 16.6505V17.8773C52.9121 17.8983 52.7359 17.9123 52.5737 17.9333C52.4045 17.9544 52.2353 17.9614 52.059 17.9614C51.636 17.9614 51.2976 17.9193 51.0438 17.8422C50.79 17.7651 50.5855 17.6459 50.4445 17.4917C50.2965 17.3375 50.2048 17.1482 50.1484 16.9169C50.0991 16.6856 50.0638 16.4192 50.0568 16.1248V11.8838H48.8512V10.6851H48.8371ZM54.2023 10.6851H55.711V11.6595H55.7392C55.9649 11.2389 56.2751 10.9445 56.6769 10.7622C57.0788 10.5799 57.5089 10.4888 57.9812 10.4888C58.5523 10.4888 59.0458 10.5869 59.4688 10.7902C59.8918 10.9865 60.2443 11.2599 60.5263 11.6104C60.8084 11.9609 61.0128 12.3675 61.1538 12.8301C61.2948 13.2928 61.3653 13.7905 61.3653 14.3162C61.3653 14.7999 61.3019 15.2696 61.175 15.7182C61.0481 16.1738 60.8577 16.5734 60.6039 16.9239C60.3501 17.2744 60.0258 17.5478 59.631 17.7581C59.2362 17.9684 58.7779 18.0735 58.2421 18.0735C58.0094 18.0735 57.7768 18.0525 57.5441 18.0104C57.3114 17.9684 57.0858 17.8983 56.8743 17.8072C56.6628 17.716 56.4584 17.5969 56.2821 17.4496C56.0988 17.3024 55.9508 17.1342 55.8239 16.9449H55.7957V20.534H54.2023V10.6851ZM59.772 14.2882C59.772 13.9657 59.7297 13.6503 59.6451 13.3418C59.5605 13.0334 59.4336 12.767 59.2644 12.5287C59.0952 12.2904 58.8836 12.1011 58.6369 11.9609C58.3831 11.8207 58.094 11.7436 57.7697 11.7436C57.0999 11.7436 56.5923 11.9749 56.2539 12.4376C55.9155 12.9002 55.7463 13.5171 55.7463 14.2882C55.7463 14.6527 55.7886 14.9892 55.8803 15.2976C55.9719 15.606 56.0988 15.8724 56.2821 16.0967C56.4584 16.3211 56.6699 16.4963 56.9166 16.6225C57.1634 16.7557 57.4525 16.8188 57.7768 16.8188C58.1434 16.8188 58.4465 16.7416 58.7003 16.5944C58.9542 16.4472 59.1586 16.251 59.3208 16.0196C59.4829 15.7813 59.6028 15.5149 59.6733 15.2135C59.7367 14.9121 59.772 14.6036 59.772 14.2882ZM62.585 7.94421H64.1784V9.44433H62.585V7.94421ZM62.585 10.6851H64.1784V17.8773H62.585V10.6851ZM65.6025 7.94421H67.1959V17.8773H65.6025V7.94421ZM72.0817 18.0735C71.5035 18.0735 70.9889 17.9754 70.5377 17.7861C70.0864 17.5969 69.7057 17.3305 69.3885 17.001C69.0783 16.6645 68.8386 16.265 68.6764 15.8023C68.5142 15.3397 68.4296 14.8279 68.4296 14.2742C68.4296 13.7274 68.5142 13.2227 68.6764 12.76C68.8386 12.2974 69.0783 11.8978 69.3885 11.5613C69.6987 11.2249 70.0864 10.9655 70.5377 10.7762C70.9889 10.5869 71.5035 10.4888 72.0817 10.4888C72.6598 10.4888 73.1744 10.5869 73.6257 10.7762C74.0769 10.9655 74.4576 11.2319 74.7748 11.5613C75.0851 11.8978 75.3248 12.2974 75.4869 12.76C75.6491 13.2227 75.7337 13.7274 75.7337 14.2742C75.7337 14.8279 75.6491 15.3397 75.4869 15.8023C75.3248 16.265 75.0851 16.6645 74.7748 17.001C74.4646 17.3375 74.0769 17.5969 73.6257 17.7861C73.1744 17.9754 72.6598 18.0735 72.0817 18.0735ZM72.0817 16.8188C72.4342 16.8188 72.7444 16.7416 73.0052 16.5944C73.2661 16.4472 73.4776 16.251 73.6468 16.0126C73.816 15.7743 73.9359 15.5009 74.0205 15.1995C74.098 14.898 74.1403 14.5896 74.1403 14.2742C74.1403 13.9657 74.098 13.6643 74.0205 13.3559C73.9429 13.0474 73.816 12.7811 73.6468 12.5427C73.4776 12.3044 73.2661 12.1151 73.0052 11.9679C72.7444 11.8207 72.4342 11.7436 72.0817 11.7436C71.7291 11.7436 71.4189 11.8207 71.1581 11.9679C70.8972 12.1151 70.6857 12.3114 70.5165 12.5427C70.3473 12.7811 70.2274 13.0474 70.1428 13.3559C70.0653 13.6643 70.023 13.9657 70.023 14.2742C70.023 14.5896 70.0653 14.898 70.1428 15.1995C70.2204 15.5009 70.3473 15.7743 70.5165 16.0126C70.6857 16.251 70.8972 16.4472 71.1581 16.5944C71.4189 16.7487 71.7291 16.8188 72.0817 16.8188ZM76.199 10.6851H77.4046V8.52604H78.9979V10.6851H80.4362V11.8698H78.9979V15.7112C78.9979 15.8794 79.005 16.0196 79.0191 16.1458C79.0332 16.265 79.0684 16.3701 79.1178 16.4542C79.1671 16.5384 79.2447 16.6014 79.3504 16.6435C79.4562 16.6856 79.5901 16.7066 79.7734 16.7066C79.8863 16.7066 79.9991 16.7066 80.1119 16.6996C80.2247 16.6926 80.3375 16.6786 80.4503 16.6505V17.8773C80.274 17.8983 80.0978 17.9123 79.9356 17.9333C79.7664 17.9544 79.5972 17.9614 79.4209 17.9614C78.9979 17.9614 78.6595 17.9193 78.4057 17.8422C78.1519 17.7651 77.9474 17.6459 77.8064 17.4917C77.6584 17.3375 77.5667 17.1482 77.5103 16.9169C77.461 16.6856 77.4257 16.4192 77.4187 16.1248V11.8838H76.2131V10.6851L76.199 10.6851Z" fill="#191919"/>
<path d="M19.6985 7.94412H12.3945L10.1384 1.03235L7.87532 7.94412L0.571289 7.93711L6.48642 12.2132L4.2233 19.1179L10.1384 14.8489L16.0465 19.1179L13.7905 12.2132L19.6985 7.94412Z" fill="#00B67A"/>
<path d="M14.2983 13.7766L13.7907 12.2133L10.1387 14.8492L14.2983 13.7766Z" fill="#005128"/>
</svg>
