<svg width="231" height="44" viewBox="0 0 231 44" fill="none" xmlns="http://www.w3.org/2000/svg">
<g clip-path="url(#clip0_1_573)">
<g clip-path="url(#clip1_1_573)">
<g clip-path="url(#clip2_1_573)">
<path d="M43.8333 0.0800781H0.833344V43.0801H43.8333V0.0800781Z" fill="#00B67A"/>
<path d="M90.4167 0.0800781H47.4167V43.0801H90.4167V0.0800781Z" fill="#00B67A"/>
<path d="M137 0.0800781H94V43.0801H137V0.0800781Z" fill="#00B67A"/>
<path d="M183.583 0.0800781H140.583V43.0801H183.583V0.0800781Z" fill="#00B67A"/>
<path d="M230.167 0.0800781H187.167V43.0801H230.167V0.0800781Z" fill="#00B67A"/>
<path d="M22.3334 29.0604L28.8729 27.4031L31.6052 35.8239L22.3334 29.0604ZM37.3834 18.176H25.8719L22.3334 7.33643L18.7948 18.176H7.28336L16.6 24.8948L13.0615 35.7343L22.3781 29.0156L28.1115 24.8948L37.3834 18.176Z" fill="white"/>
<path d="M68.9167 29.0604L75.4563 27.4031L78.1885 35.8239L68.9167 29.0604ZM83.9667 18.176H72.4552L68.9167 7.33643L65.3781 18.176H53.8667L63.1833 24.8948L59.6448 35.7343L68.9615 29.0156L74.6948 24.8948L83.9667 18.176Z" fill="white"/>
<path d="M115.5 29.0604L122.04 27.4031L124.772 35.8239L115.5 29.0604ZM130.55 18.176H119.039L115.5 7.33643L111.961 18.176H100.45L109.767 24.8948L106.228 35.7343L115.545 29.0156L121.278 24.8948L130.55 18.176Z" fill="white"/>
<path d="M162.083 29.0604L168.623 27.4031L171.355 35.8239L162.083 29.0604ZM177.133 18.176H165.622L162.083 7.33643L158.545 18.176H147.033L156.35 24.8948L152.811 35.7343L162.128 29.0156L167.861 24.8948L177.133 18.176Z" fill="white"/>
<path d="M208.667 29.0604L215.206 27.4031L217.939 35.8239L208.667 29.0604ZM223.717 18.176H212.205L208.667 7.33643L205.128 18.176H193.617L202.933 24.8948L199.395 35.7343L208.711 29.0156L214.445 24.8948L223.717 18.176Z" fill="white"/>
</g>
</g>
</g>
<defs>
<clipPath id="clip0_1_573">
<rect width="230" height="43" fill="white" transform="translate(0.5 0.0800781)"/>
</clipPath>
<clipPath id="clip1_1_573">
<rect width="230" height="43" fill="white" transform="translate(0.5 0.0800781)"/>
</clipPath>
<clipPath id="clip2_1_573">
<rect width="229.333" height="43" fill="white" transform="translate(0.833344 0.0800781)"/>
</clipPath>
</defs>
</svg>
