<svg width="124" height="43" viewBox="0 0 124 43" fill="none" xmlns="http://www.w3.org/2000/svg">
<g clip-path="url(#clip0_1_78)">
<g clip-path="url(#clip1_1_78)">
<g clip-path="url(#clip2_1_78)">
<path d="M110.131 0.000801382H9.53436C9.16767 0.000801382 8.80538 0.000801382 8.43966 0.00280131C8.13352 0.00480125 7.82982 0.010611 7.52074 0.0155009C6.84928 0.0234024 6.1794 0.0824749 5.51691 0.192205C4.85536 0.304324 4.21453 0.5157 3.6161 0.819184C3.0184 1.12523 2.47226 1.52292 1.9975 1.9978C1.52025 2.47135 1.12243 3.01871 0.819322 3.61884C0.515383 4.21777 0.30463 4.85957 0.194343 5.52209C0.0830081 6.18378 0.0230976 6.85309 0.0151495 7.52403C0.0058698 7.83062 0.00488983 8.13822 0 8.44485V31.5583C0.00488983 31.8688 0.0058698 32.1696 0.0151495 32.4802C0.0231 33.1511 0.0830106 33.8204 0.194343 34.482C0.304326 35.1449 0.515091 35.7871 0.819322 36.3863C1.12229 36.9844 1.52017 37.5296 1.9975 38.0005C2.47046 38.4775 3.01695 38.8755 3.6161 39.1792C4.21452 39.4835 4.85529 39.6961 5.51691 39.8099C6.17951 39.9188 6.84932 39.9779 7.52074 39.9867C7.82982 39.9935 8.13352 39.9974 8.43966 39.9974C8.80537 39.9994 9.16769 39.9994 9.53436 39.9994H110.131C110.49 39.9994 110.856 39.9994 111.215 39.9974C111.52 39.9974 111.832 39.9935 112.137 39.9867C112.807 39.9784 113.476 39.9193 114.137 39.8099C114.801 39.6953 115.444 39.4827 116.045 39.1792C116.644 38.8753 117.19 38.4773 117.662 38.0005C118.138 37.5277 118.537 36.983 118.844 36.3863C119.146 35.7867 119.354 35.1446 119.463 34.482C119.574 33.8203 119.636 33.1512 119.648 32.4802C119.652 32.1696 119.652 31.8688 119.652 31.5583C119.66 31.195 119.66 30.8338 119.66 30.4646V9.53661C119.66 9.17041 119.66 8.80714 119.652 8.44485C119.652 8.13822 119.652 7.83062 119.648 7.52399C119.636 6.85299 119.574 6.18383 119.463 5.52205C119.354 4.85992 119.145 4.21816 118.844 3.6188C118.226 2.41592 117.248 1.43678 116.045 0.819094C115.444 0.516351 114.8 0.305031 114.137 0.192115C113.476 0.0819014 112.807 0.0228084 112.137 0.0153609C111.832 0.0104811 111.52 0.00462125 111.215 0.00267132C110.856 0.000671387 110.49 0.000801382 110.131 0.000801382Z" fill="#A6A6A6"/>
<path d="M8.44455 39.1244C8.13988 39.1244 7.84257 39.1205 7.54029 39.1137C6.91409 39.1055 6.28936 39.051 5.67121 38.9506C5.09482 38.8513 4.53646 38.6667 4.01453 38.4027C3.49739 38.1409 3.02571 37.7977 2.61758 37.3861C2.20353 36.9794 1.85882 36.5077 1.5971 35.9897C1.3325 35.4683 1.14938 34.9094 1.05412 34.3325C0.951248 33.7127 0.895589 33.0859 0.887625 32.4576C0.881286 32.2467 0.872986 31.5445 0.872986 31.5445V8.44475C0.872986 8.44475 0.881826 7.75337 0.887675 7.55024C0.895301 6.92295 0.950635 6.29714 1.0532 5.67824C1.14864 5.09978 1.3319 4.5393 1.59664 4.01619C1.8574 3.49853 2.2002 3.02646 2.61175 2.61829C3.02284 2.20625 3.49602 1.86124 4.01404 1.59586C4.53477 1.33275 5.09208 1.14939 5.6673 1.05194C6.28748 0.950505 6.91438 0.895667 7.54275 0.887881L8.44504 0.875671H111.21L112.123 0.888371C112.746 0.89577 113.367 0.950119 113.981 1.05096C114.563 1.14964 115.126 1.33427 115.652 1.59879C116.69 2.13361 117.535 2.97976 118.067 4.01863C118.328 4.53812 118.508 5.09403 118.602 5.6675C118.706 6.29148 118.764 6.9222 118.776 7.55464C118.779 7.83783 118.779 8.14202 118.779 8.44475C118.787 8.81974 118.787 9.17666 118.787 9.53651V30.4645C118.787 30.8278 118.787 31.1822 118.779 31.5396C118.779 31.8648 118.779 32.1627 118.775 32.4693C118.764 33.0905 118.706 33.7099 118.604 34.3227C118.511 34.9038 118.329 35.467 118.064 35.9927C117.801 36.5051 117.458 36.9727 117.049 37.3783C116.64 37.7921 116.168 38.1373 115.649 38.4008C115.124 38.6668 114.562 38.8521 113.981 38.9506C113.363 39.0515 112.739 39.106 112.112 39.1137C111.819 39.1205 111.513 39.1244 111.215 39.1244L110.131 39.1264L8.44455 39.1244Z" fill="black"/>
<path d="M24.7686 20.3011C24.7793 19.4664 25.001 18.648 25.413 17.9221C25.8251 17.1961 26.414 16.5862 27.1251 16.149C26.6734 15.5038 26.0774 14.9729 25.3846 14.5983C24.6918 14.2238 23.9212 14.016 23.134 13.9913C21.4547 13.8151 19.8268 14.9962 18.9711 14.9962C18.0988 14.9962 16.7813 14.0088 15.3626 14.038C14.4449 14.0677 13.5505 14.3345 12.7667 14.8126C11.9828 15.2906 11.3361 15.9636 10.8896 16.7659C8.95565 20.1143 10.3982 25.0354 12.2508 27.742C13.1777 29.0673 14.261 30.5478 15.6785 30.4953C17.0655 30.4377 17.5836 29.6108 19.2579 29.6108C20.9166 29.6108 21.4027 30.4953 22.8489 30.4619C24.3373 30.4377 25.275 29.1306 26.1694 27.7927C26.8354 26.8484 27.3478 25.8047 27.6878 24.7002C26.8231 24.3345 26.0852 23.7223 25.5661 22.94C25.0469 22.1577 24.7696 21.2399 24.7686 20.3011Z" fill="white"/>
<path d="M22.0367 12.2113C22.8482 11.2371 23.248 9.98487 23.1512 8.72064C21.9113 8.85086 20.7661 9.44342 19.9436 10.3803C19.5415 10.8379 19.2335 11.3704 19.0372 11.9471C18.841 12.5239 18.7603 13.1337 18.7999 13.7416C19.42 13.748 20.0335 13.6136 20.5942 13.3485C21.1549 13.0834 21.6481 12.6946 22.0367 12.2113Z" fill="white"/>
<path d="M42.3011 27.1397H37.5677L36.431 30.4961H34.4261L38.9095 18.0781H40.9925L45.4759 30.4961H43.4369L42.3011 27.1397ZM38.058 25.5908H41.81L39.9604 20.1436H39.9086L38.058 25.5908Z" fill="white"/>
<path d="M55.1582 25.9696C55.1582 28.7831 53.6523 30.5907 51.3799 30.5907C50.8042 30.6208 50.2317 30.4882 49.7279 30.2081C49.2241 29.928 48.8094 29.5116 48.5312 29.0067H48.4882V33.4911H46.6298V21.4423H48.4287V22.9481H48.4629C48.7538 22.4457 49.1755 22.0315 49.6832 21.7496C50.1908 21.4678 50.7653 21.3288 51.3457 21.3476C53.6435 21.3476 55.1582 23.164 55.1582 25.9696ZM53.248 25.9696C53.248 24.1366 52.3007 22.9315 50.8554 22.9315C49.4355 22.9315 48.4804 24.162 48.4804 25.9696C48.4804 27.7939 49.4355 29.0155 50.8554 29.0155C52.3008 29.0155 53.248 27.8192 53.248 25.9696Z" fill="white"/>
<path d="M65.1226 25.9697C65.1226 28.7832 63.6168 30.5908 61.3443 30.5908C60.7687 30.6209 60.1962 30.4883 59.6924 30.2081C59.1886 29.928 58.7739 29.5117 58.4957 29.0068H58.4527V33.4912H56.5943V21.4423H58.3931V22.9482H58.4273C58.7183 22.4457 59.14 22.0315 59.6476 21.7497C60.1552 21.4679 60.7298 21.3289 61.3101 21.3476C63.608 21.3476 65.1226 23.164 65.1226 25.9697ZM63.2125 25.9697C63.2125 24.1367 62.2652 22.9316 60.8199 22.9316C59.4 22.9316 58.4449 24.1621 58.4449 25.9697C58.4449 27.7939 59.4 29.0156 60.8199 29.0156C62.2652 29.0156 63.2125 27.8193 63.2125 25.9697Z" fill="white"/>
<path d="M71.7082 27.0362C71.8459 28.2676 73.0422 29.0762 74.6769 29.0762C76.2433 29.0762 77.3703 28.2676 77.3703 27.1572C77.3703 26.1934 76.6906 25.6162 75.0812 25.2207L73.4718 24.833C71.1916 24.2822 70.133 23.2158 70.133 21.4854C70.133 19.3428 72.0002 17.8711 74.6515 17.8711C77.2755 17.8711 79.0744 19.3428 79.1349 21.4854H77.2589C77.1466 20.2461 76.1222 19.4981 74.6251 19.4981C73.1281 19.4981 72.1036 20.2549 72.1036 21.3565C72.1036 22.2344 72.7579 22.751 74.3585 23.1465L75.7267 23.4824C78.2745 24.0849 79.3331 25.1084 79.3331 26.9248C79.3331 29.248 77.4825 30.7031 74.5392 30.7031C71.7853 30.7031 69.9259 29.2822 69.8058 27.0361L71.7082 27.0362Z" fill="white"/>
<path d="M83.3435 19.2998V21.4424H85.0652V22.9141H83.3435V27.9053C83.3435 28.6807 83.6882 29.042 84.4451 29.042C84.6495 29.0384 84.8535 29.0241 85.0564 28.999V30.4619C84.7161 30.5255 84.3703 30.5543 84.0242 30.5478C82.1912 30.5478 81.4763 29.8593 81.4763 28.1035V22.9141H80.1599V21.4424H81.4763V19.2998H83.3435Z" fill="white"/>
<path d="M86.0621 25.9697C86.0621 23.121 87.7399 21.331 90.3561 21.331C92.9811 21.331 94.651 23.121 94.651 25.9697C94.651 28.8261 92.9899 30.6083 90.3561 30.6083C87.7232 30.6083 86.0621 28.8261 86.0621 25.9697ZM92.7574 25.9697C92.7574 24.0156 91.8619 22.8622 90.3561 22.8622C88.8502 22.8622 87.9557 24.0244 87.9557 25.9697C87.9557 27.9316 88.8502 29.0761 90.3561 29.0761C91.8619 29.0761 92.7574 27.9316 92.7574 25.9697Z" fill="white"/>
<path d="M96.1828 21.4423H97.9553V22.9833H97.9983C98.1182 22.502 98.4002 22.0767 98.7968 21.7788C99.1933 21.4809 99.6804 21.3287 100.176 21.3476C100.39 21.3468 100.604 21.3701 100.813 21.4169V23.1552C100.542 23.0726 100.26 23.0347 99.9778 23.0429C99.7078 23.0319 99.4386 23.0796 99.1888 23.1824C98.9389 23.2853 98.7143 23.4411 98.5303 23.6389C98.3464 23.8368 98.2074 24.0722 98.123 24.3289C98.0385 24.5855 98.0107 24.8574 98.0412 25.1259V30.496H96.1828L96.1828 21.4423Z" fill="white"/>
<path d="M109.381 27.8369C109.131 29.4804 107.53 30.6083 105.482 30.6083C102.849 30.6083 101.214 28.8437 101.214 26.0126C101.214 23.1728 102.857 21.331 105.404 21.331C107.909 21.331 109.484 23.0517 109.484 25.7968V26.4335H103.09V26.5458C103.06 26.879 103.102 27.2147 103.212 27.5305C103.322 27.8464 103.499 28.1352 103.729 28.3777C103.959 28.6203 104.239 28.811 104.548 28.9373C104.858 29.0636 105.191 29.1226 105.525 29.1103C105.965 29.1514 106.405 29.0497 106.782 28.8203C107.159 28.5908 107.451 28.2459 107.616 27.8368L109.381 27.8369ZM103.099 25.1347H107.625C107.642 24.8351 107.596 24.5353 107.492 24.2541C107.387 23.9729 107.225 23.7163 107.017 23.5006C106.808 23.2848 106.557 23.1145 106.28 23.0003C106.002 22.886 105.704 22.8304 105.404 22.8369C105.102 22.835 104.802 22.8932 104.522 23.0079C104.242 23.1227 103.987 23.2917 103.773 23.5054C103.558 23.719 103.388 23.973 103.273 24.2526C103.157 24.5323 103.098 24.8321 103.099 25.1347Z" fill="white"/>
<path d="M37.8249 8.73138C38.2146 8.70342 38.6055 8.76228 38.9696 8.90371C39.3337 9.04515 39.6619 9.26563 39.9305 9.54925C40.1991 9.83288 40.4014 10.1726 40.5228 10.5438C40.6442 10.9151 40.6817 11.3087 40.6326 11.6962C40.6326 13.6025 39.6023 14.6982 37.8249 14.6982H35.6697V8.73138H37.8249ZM36.5964 13.8544H37.7214C37.9998 13.871 38.2784 13.8254 38.537 13.7208C38.7955 13.6161 39.0275 13.4552 39.216 13.2496C39.4045 13.0441 39.5448 12.7991 39.6266 12.5324C39.7085 12.2658 39.7299 11.9843 39.6892 11.7084C39.7269 11.4335 39.7034 11.1538 39.6202 10.8891C39.5371 10.6244 39.3965 10.3814 39.2084 10.1775C39.0204 9.97358 38.7895 9.81378 38.5324 9.70954C38.2754 9.6053 37.9984 9.55922 37.7214 9.57459H36.5964V13.8544Z" fill="white"/>
<path d="M41.6794 12.4447C41.6511 12.1488 41.685 11.8502 41.7788 11.5682C41.8726 11.2861 42.0244 11.0267 42.2243 10.8068C42.4243 10.5868 42.668 10.411 42.9398 10.2907C43.2117 10.1705 43.5057 10.1083 43.803 10.1083C44.1002 10.1083 44.3942 10.1705 44.6661 10.2907C44.9379 10.411 45.1816 10.5868 45.3816 10.8068C45.5815 11.0267 45.7333 11.2861 45.8271 11.5682C45.9209 11.8502 45.9548 12.1488 45.9265 12.4447C45.9553 12.7409 45.9219 13.0399 45.8283 13.3224C45.7347 13.605 45.583 13.8648 45.383 14.0852C45.183 14.3056 44.9392 14.4818 44.667 14.6023C44.3949 14.7228 44.1006 14.7851 43.803 14.7851C43.5053 14.7851 43.211 14.7228 42.9389 14.6023C42.6668 14.4818 42.4229 14.3056 42.2229 14.0852C42.0229 13.8648 41.8712 13.605 41.7776 13.3224C41.684 13.0399 41.6506 12.7409 41.6794 12.4447ZM45.0124 12.4447C45.0124 11.4686 44.5739 10.8978 43.8044 10.8978C43.032 10.8978 42.5974 11.4686 42.5974 12.4447C42.5974 13.4286 43.032 13.995 43.8044 13.995C44.574 13.995 45.0124 13.4247 45.0124 12.4447Z" fill="white"/>
<path d="M51.5717 14.6981H50.6498L49.7191 11.3816H49.6488L48.722 14.6981H47.809L46.5677 10.1951H47.4691L48.2758 13.6311H48.3422L49.268 10.1951H50.1205L51.0463 13.6311H51.1166L51.9193 10.1951H52.808L51.5717 14.6981Z" fill="white"/>
<path d="M53.8517 10.1951H54.7072V10.9104H54.7736C54.8862 10.6535 55.0762 10.4381 55.3171 10.2943C55.558 10.1505 55.8377 10.0855 56.1173 10.1082C56.3364 10.0917 56.5564 10.1248 56.761 10.2049C56.9656 10.2849 57.1496 10.4101 57.2992 10.5709C57.4489 10.7317 57.5605 10.9242 57.6257 11.134C57.6909 11.3438 57.7081 11.5656 57.6759 11.783V14.698H56.7872V12.0062C56.7872 11.2825 56.4728 10.9227 55.8156 10.9227C55.6668 10.9157 55.5183 10.941 55.3802 10.9969C55.2422 11.0527 55.1178 11.1377 55.0157 11.2461C54.9136 11.3545 54.8361 11.4837 54.7886 11.6248C54.741 11.7659 54.7246 11.9157 54.7404 12.0638V14.698H53.8517L53.8517 10.1951Z" fill="white"/>
<path d="M59.0917 8.43738H59.9804V14.6981H59.0917V8.43738Z" fill="white"/>
<path d="M61.2156 12.4447C61.1874 12.1487 61.2212 11.8502 61.3151 11.5681C61.409 11.286 61.5607 11.0266 61.7607 10.8067C61.9607 10.5867 62.2044 10.4109 62.4763 10.2906C62.7481 10.1703 63.0421 10.1082 63.3394 10.1082C63.6367 10.1082 63.9307 10.1703 64.2026 10.2906C64.4745 10.4109 64.7182 10.5867 64.9182 10.8067C65.1181 11.0266 65.2699 11.286 65.3638 11.5681C65.4576 11.8502 65.4915 12.1487 65.4632 12.4447C65.492 12.7409 65.4585 13.0399 65.3649 13.3224C65.2713 13.6049 65.1196 13.8648 64.9196 14.0852C64.7196 14.3056 64.4757 14.4817 64.2035 14.6022C63.9314 14.7228 63.6371 14.785 63.3394 14.785C63.0418 14.785 62.7475 14.7228 62.4753 14.6022C62.2032 14.4817 61.9593 14.3056 61.7593 14.0852C61.5593 13.8648 61.4076 13.6049 61.3139 13.3224C61.2203 13.0399 61.1868 12.7409 61.2156 12.4447ZM64.5486 12.4447C64.5486 11.4686 64.1102 10.8978 63.3406 10.8978C62.5682 10.8978 62.1337 11.4686 62.1337 12.4447C62.1337 13.4286 62.5682 13.995 63.3406 13.995C64.1102 13.995 64.5486 13.4247 64.5486 12.4447Z" fill="white"/>
<path d="M66.3986 13.4246C66.3986 12.6141 67.0021 12.1468 68.0734 12.0804L69.2932 12.0101V11.6214C69.2932 11.1458 68.9787 10.8773 68.3713 10.8773C67.8752 10.8773 67.5314 11.0594 67.4328 11.3777H66.5724C66.6633 10.6043 67.3908 10.1082 68.4123 10.1082C69.5412 10.1082 70.1779 10.6702 70.1779 11.6214V14.6981H69.3224V14.0652H69.2521C69.1094 14.2922 68.909 14.4773 68.6714 14.6015C68.4338 14.7257 68.1674 14.7846 67.8996 14.7722C67.7106 14.7919 67.5195 14.7717 67.3387 14.713C67.158 14.6543 66.9915 14.5584 66.8501 14.4314C66.7087 14.3045 66.5955 14.1493 66.5177 13.9759C66.4399 13.8025 66.3994 13.6147 66.3986 13.4246ZM69.2932 13.0398V12.6634L68.1935 12.7337C67.5734 12.7752 67.2922 12.9861 67.2922 13.3831C67.2922 13.7884 67.6437 14.0242 68.1272 14.0242C68.2688 14.0386 68.4119 14.0243 68.5479 13.9822C68.6839 13.9401 68.8101 13.8711 68.9188 13.7792C69.0276 13.6874 69.1168 13.5746 69.1811 13.4476C69.2454 13.3205 69.2835 13.1819 69.2932 13.0398Z" fill="white"/>
<path d="M71.3457 12.4447C71.3457 11.0219 72.0772 10.1205 73.2148 10.1205C73.4963 10.1075 73.7756 10.1749 74.0201 10.3148C74.2646 10.4547 74.4643 10.6613 74.5957 10.9105H74.6621V8.43738H75.5508V14.6981H74.6992V13.9867H74.6289C74.4873 14.2342 74.2807 14.4382 74.0314 14.5767C73.7822 14.7152 73.4998 14.7828 73.2149 14.7723C72.0693 14.7724 71.3457 13.871 71.3457 12.4447ZM72.2637 12.4447C72.2637 13.3998 72.7139 13.9745 73.4668 13.9745C74.2158 13.9745 74.6787 13.3915 74.6787 12.4486C74.6787 11.5101 74.211 10.9188 73.4668 10.9188C72.7188 10.9188 72.2637 11.4974 72.2637 12.4447Z" fill="white"/>
<path d="M79.2273 12.4447C79.199 12.1487 79.2328 11.8502 79.3267 11.5681C79.4205 11.286 79.5722 11.0267 79.7722 10.8067C79.9721 10.5867 80.2158 10.411 80.4877 10.2907C80.7595 10.1704 81.0535 10.1083 81.3508 10.1083C81.6481 10.1083 81.9421 10.1704 82.2139 10.2907C82.4858 10.411 82.7295 10.5867 82.9294 10.8067C83.1294 11.0267 83.2811 11.286 83.375 11.5681C83.4688 11.8502 83.5026 12.1487 83.4743 12.4447C83.5032 12.7409 83.4697 13.0399 83.3761 13.3224C83.2825 13.6049 83.1309 13.8647 82.9309 14.0851C82.7309 14.3056 82.487 14.4817 82.2149 14.6022C81.9428 14.7228 81.6484 14.785 81.3508 14.785C81.0532 14.785 80.7588 14.7228 80.4867 14.6022C80.2146 14.4817 79.9707 14.3056 79.7707 14.0851C79.5707 13.8647 79.4191 13.6049 79.3255 13.3224C79.2319 13.0399 79.1984 12.7409 79.2273 12.4447ZM82.5603 12.4447C82.5603 11.4686 82.1218 10.8978 81.3523 10.8978C80.5798 10.8978 80.1453 11.4686 80.1453 12.4447C80.1453 13.4286 80.5798 13.995 81.3523 13.995C82.1218 13.9949 82.5603 13.4246 82.5603 12.4447Z" fill="white"/>
<path d="M84.6666 10.1951H85.522V10.9104H85.5884C85.7011 10.6535 85.8911 10.4381 86.132 10.2943C86.3728 10.1505 86.6526 10.0855 86.9322 10.1082C87.1513 10.0917 87.3713 10.1248 87.5759 10.2049C87.7805 10.2849 87.9644 10.4101 88.1141 10.5709C88.2638 10.7317 88.3754 10.9242 88.4406 11.134C88.5058 11.3438 88.5229 11.5656 88.4908 11.783V14.698H87.6021V12.0062C87.6021 11.2825 87.2877 10.9227 86.6304 10.9227C86.4817 10.9157 86.3332 10.941 86.1951 10.9969C86.0571 11.0527 85.9327 11.1377 85.8306 11.2461C85.7285 11.3545 85.651 11.4837 85.6035 11.6248C85.5559 11.7659 85.5395 11.9157 85.5552 12.0638V14.698H84.6666V10.1951Z" fill="white"/>
<path d="M93.512 9.0741V10.2157H94.4876V10.9642H93.512V13.2797C93.512 13.7513 93.7063 13.9579 94.1487 13.9579C94.262 13.9575 94.3751 13.9507 94.4876 13.9374V14.6776C94.328 14.7062 94.1663 14.7213 94.0042 14.723C93.0159 14.723 92.6223 14.3754 92.6223 13.5072V10.9642H91.9075V10.2157H92.6223V9.0741H93.512Z" fill="white"/>
<path d="M95.7013 8.43738H96.5822V10.9188H96.6525C96.7706 10.6595 96.9658 10.4429 97.2115 10.2986C97.4572 10.1542 97.7415 10.0891 98.0255 10.1122C98.2435 10.1003 98.4613 10.1367 98.6636 10.2188C98.8659 10.3008 99.0476 10.4265 99.1957 10.5868C99.3438 10.7471 99.4547 10.9382 99.5205 11.1463C99.5863 11.3545 99.6053 11.5746 99.5763 11.7909V14.6981H98.6867V12.0101C98.6867 11.2909 98.3517 10.9266 97.7238 10.9266C97.5711 10.9141 97.4175 10.9351 97.2737 10.9882C97.1299 11.0412 96.9995 11.125 96.8915 11.2338C96.7835 11.3425 96.7005 11.4735 96.6485 11.6177C96.5964 11.7618 96.5765 11.9156 96.59 12.0682V14.6981H95.7014L95.7013 8.43738Z" fill="white"/>
<path d="M104.758 13.4822C104.637 13.8938 104.375 14.2498 104.019 14.4879C103.662 14.7261 103.233 14.8312 102.807 14.785C102.51 14.7928 102.215 14.736 101.943 14.6185C101.67 14.5009 101.426 14.3255 101.229 14.1044C101.031 13.8832 100.883 13.6217 100.797 13.3379C100.71 13.054 100.686 12.7547 100.727 12.4608C100.687 12.1659 100.711 11.866 100.798 11.5813C100.884 11.2966 101.031 11.0338 101.228 10.8108C101.425 10.5877 101.667 10.4095 101.939 10.2883C102.211 10.1671 102.505 10.1057 102.803 10.1082C104.056 10.1082 104.811 10.9642 104.811 12.3782V12.6883H101.632V12.7381C101.618 12.9034 101.639 13.0697 101.693 13.2264C101.747 13.3832 101.833 13.5269 101.946 13.6484C102.059 13.7698 102.196 13.8663 102.348 13.9317C102.501 13.9971 102.665 14.03 102.831 14.0281C103.044 14.0536 103.259 14.0154 103.45 13.9182C103.64 13.8209 103.798 13.6692 103.902 13.4822L104.758 13.4822ZM101.632 12.0311H103.906C103.917 11.88 103.897 11.7282 103.846 11.5854C103.795 11.4427 103.715 11.3122 103.61 11.2024C103.506 11.0925 103.38 11.0057 103.24 10.9475C103.1 10.8894 102.949 10.8611 102.798 10.8646C102.644 10.8626 102.492 10.8915 102.349 10.9495C102.207 11.0074 102.078 11.0933 101.969 11.202C101.86 11.3107 101.774 11.44 101.716 11.5824C101.659 11.7248 101.63 11.8774 101.632 12.0311Z" fill="white"/>
</g>
</g>
</g>
<defs>
<clipPath id="clip0_1_78">
<rect width="119.66" height="40" fill="white"/>
</clipPath>
<clipPath id="clip1_1_78">
<rect width="119.66" height="40" fill="white"/>
</clipPath>
<clipPath id="clip2_1_78">
<rect width="119.66" height="39.9986" fill="white" transform="translate(0 0.000671387)"/>
</clipPath>
</defs>
</svg>
