<svg width="168" height="40" viewBox="0 0 168 40" fill="none" xmlns="http://www.w3.org/2000/svg">
<g clip-path="url(#clip0_1_116)">
<g clip-path="url(#clip1_1_116)">
<g clip-path="url(#clip2_1_116)">
<path d="M146.488 39.9992H21.4925C18.7426 39.9992 16.4927 37.7493 16.4927 34.9994V5.00059C16.4927 2.2507 18.7426 0.000793457 21.4925 0.000793457H146.488C149.237 0.000793457 151.487 2.2507 151.487 5.00059V34.9994C151.487 37.7493 149.237 39.9992 146.488 39.9992Z" fill="black"/>
<path d="M146.488 0.800762C147.601 0.800762 148.67 1.24324 149.457 2.03086C150.245 2.81849 150.687 3.88673 150.687 5.00059V34.9994C150.687 36.1133 150.245 37.1815 149.457 37.9691C148.67 38.7567 147.601 39.1992 146.488 39.1992H21.4925C20.3786 39.1992 19.3104 38.7567 18.5228 37.9691C17.7352 37.1815 17.2927 36.1133 17.2927 34.9994V5.00059C17.2927 3.88673 17.7352 2.81849 18.5228 2.03086C19.3104 1.24324 20.3786 0.800762 21.4925 0.800762H146.488ZM146.488 0.000793457H21.4925C18.7426 0.000793457 16.4927 2.2507 16.4927 5.00059V34.9994C16.4927 37.7493 18.7426 39.9992 21.4925 39.9992H146.488C149.237 39.9992 151.487 37.7493 151.487 34.9994V5.00059C151.487 2.2507 149.237 0.000793457 146.488 0.000793457Z" fill="#A6A6A6"/>
<path d="M63.9108 10.2404C63.9108 11.0804 63.6608 11.7503 63.1608 12.2403C62.6009 12.8303 61.8709 13.1303 60.9609 13.1303C60.091 13.1303 59.351 12.8303 58.751 12.2303C58.151 11.6303 57.851 10.8804 57.851 10.0004C57.851 9.12044 58.151 8.37047 58.751 7.7705C59.351 7.17052 60.091 6.86053 60.9609 6.86053C61.4009 6.86053 61.8209 6.94053 62.2109 7.09053C62.6009 7.25052 62.9208 7.47051 63.1708 7.7505L62.6209 8.30048C62.4409 8.08048 62.2009 7.90049 61.9009 7.7805C61.6045 7.65154 61.2841 7.58678 60.9609 7.59051C60.3109 7.59051 59.751 7.8205 59.301 8.27048C58.851 8.73046 58.631 9.30044 58.631 9.99041C58.631 10.6804 58.851 11.2504 59.301 11.7103C59.751 12.1603 60.3009 12.3903 60.9609 12.3903C61.5609 12.3903 62.0509 12.2203 62.4509 11.8903C62.8508 11.5603 63.0808 11.0904 63.1408 10.5104H60.9609V9.79042H63.8708C63.8908 9.95041 63.9108 10.1004 63.9108 10.2404ZM68.5206 7.00053V7.7405H65.7907V9.64042H68.2506V10.3604H65.7907V12.2603H68.5206V13.0003H65.0208V7.00053H68.5206ZM71.7705 7.7405V13.0003H71.0005V7.7405H69.3206V7.00053H73.4404V7.7405H71.7705ZM77.2003 13.0003H76.4303V7.00053H77.2003V13.0003ZM80.6201 7.7405V13.0003H79.8502V7.7405H78.1702V7.00053H82.2901V7.7405H80.6201ZM90.9797 10.0004C90.9797 10.8904 90.6797 11.6303 90.0898 12.2303C89.4898 12.8303 88.7598 13.1303 87.8898 13.1303C87.0199 13.1303 86.2899 12.8303 85.6899 12.2303C85.1 11.6303 84.8 10.8904 84.8 10.0004C84.8 9.11044 85.1 8.37047 85.6899 7.7705C86.2799 7.17052 87.0099 6.86053 87.8898 6.86053C88.7598 6.86053 89.4898 7.16052 90.0898 7.7705C90.6897 8.38047 90.9797 9.12044 90.9797 10.0004ZM85.5999 10.0004C85.5999 10.6904 85.8199 11.2704 86.2499 11.7203C86.6899 12.1703 87.2399 12.4003 87.8898 12.4003C88.5398 12.4003 89.0898 12.1703 89.5198 11.7203C89.9598 11.2704 90.1798 10.7004 90.1798 10.0004C90.1798 9.30044 89.9598 8.73046 89.5198 8.28048C89.0798 7.8305 88.5398 7.6005 87.8898 7.6005C87.2399 7.6005 86.6899 7.8305 86.2499 8.28048C85.8199 8.73046 85.5999 9.31044 85.5999 10.0004ZM92.8296 13.0003H92.0597V7.00053H92.9996L95.9195 11.6703H95.9495L95.9195 10.5104V7.00053H96.6895V13.0003H95.8895L92.8396 8.11048H92.8096L92.8396 9.27044V13.0003H92.8296Z" fill="white" stroke="white" stroke-width="0.199992" stroke-miterlimit="10"/>
<path d="M84.63 21.7499C82.2801 21.7499 80.3602 23.5399 80.3602 25.9998C80.3602 28.4497 82.2801 30.2496 84.63 30.2496C86.9799 30.2496 88.8998 28.4497 88.8998 25.9998C88.8998 23.5399 86.9799 21.7499 84.63 21.7499ZM84.63 28.5797C83.34 28.5797 82.2301 27.5197 82.2301 25.9998C82.2301 24.4698 83.34 23.4199 84.63 23.4199C85.9199 23.4199 87.0299 24.4698 87.0299 25.9998C87.0299 27.5197 85.9099 28.5797 84.63 28.5797ZM75.3104 21.7499C72.9604 21.7499 71.0405 23.5399 71.0405 25.9998C71.0405 28.4497 72.9604 30.2496 75.3104 30.2496C77.6603 30.2496 79.5802 28.4497 79.5802 25.9998C79.5802 23.5399 77.6603 21.7499 75.3104 21.7499ZM75.3104 28.5797C74.0204 28.5797 72.9104 27.5197 72.9104 25.9998C72.9104 24.4698 74.0204 23.4199 75.3104 23.4199C76.6003 23.4199 77.7103 24.4698 77.7103 25.9998C77.7103 27.5197 76.6003 28.5797 75.3104 28.5797ZM64.2308 23.0599V24.8598H68.5506C68.4206 25.8698 68.0806 26.6197 67.5707 27.1297C66.9407 27.7597 65.9607 28.4497 64.2408 28.4497C61.5809 28.4497 59.501 26.3097 59.501 23.6498C59.501 20.99 61.5809 18.85 64.2408 18.85C65.6707 18.85 66.7207 19.41 67.4907 20.14L68.7606 18.87C67.6807 17.8401 66.2507 17.0501 64.2308 17.0501C60.5909 17.0501 57.5311 20.01 57.5311 23.6598C57.5311 27.2997 60.5909 30.2696 64.2308 30.2696C66.2007 30.2696 67.6807 29.6296 68.8406 28.4197C70.0306 27.2297 70.4005 25.5498 70.4005 24.1998C70.4005 23.7798 70.3706 23.3899 70.3006 23.0699H64.2308V23.0599ZM109.539 24.4598C109.189 23.5099 108.109 21.7499 105.899 21.7499C103.709 21.7499 101.889 23.4699 101.889 25.9998C101.889 28.3797 103.689 30.2496 106.109 30.2496C108.059 30.2496 109.189 29.0596 109.649 28.3697L108.199 27.3997C107.719 28.1097 107.059 28.5797 106.109 28.5797C105.159 28.5797 104.479 28.1497 104.049 27.2897L109.739 24.9398L109.539 24.4598ZM103.739 25.8798C103.689 24.2398 105.009 23.3999 105.959 23.3999C106.699 23.3999 107.329 23.7698 107.539 24.2998L103.739 25.8798ZM99.1194 29.9996H100.989V17.5001H99.1194V29.9996ZM96.0595 22.6999H95.9895C95.5695 22.1999 94.7696 21.7499 93.7496 21.7499C91.6197 21.7499 89.6698 23.6198 89.6698 26.0198C89.6698 28.3997 91.6197 30.2596 93.7496 30.2596C94.7596 30.2596 95.5695 29.8096 95.9895 29.2896H96.0495V29.8996C96.0495 31.5295 95.1796 32.3995 93.7796 32.3995C92.6397 32.3995 91.9297 31.5795 91.6397 30.8896L90.0098 31.5695C90.4797 32.6995 91.7197 34.0794 93.7796 34.0794C95.9695 34.0794 97.8195 32.7895 97.8195 29.6496V22.0099H96.0495V22.6999H96.0595ZM93.9096 28.5797C92.6197 28.5797 91.5397 27.4997 91.5397 26.0198C91.5397 24.5198 92.6197 23.4299 93.9096 23.4299C95.1796 23.4299 96.1795 24.5298 96.1795 26.0198C96.1895 27.4997 95.1896 28.5797 93.9096 28.5797ZM118.299 17.5001H113.829V29.9996H115.699V25.2598H118.309C120.379 25.2598 122.408 23.7598 122.408 21.3799C122.398 19 120.359 17.5001 118.299 17.5001ZM118.339 23.5199H115.689V19.23H118.339C119.739 19.23 120.529 20.39 120.529 21.3699C120.529 22.3499 119.739 23.5199 118.339 23.5199ZM129.878 21.7299C128.528 21.7299 127.128 22.3299 126.548 23.6398L128.208 24.3298C128.558 23.6398 129.218 23.4099 129.908 23.4099C130.868 23.4099 131.858 23.9898 131.868 25.0198V25.1498C131.528 24.9598 130.808 24.6698 129.918 24.6698C128.128 24.6698 126.318 25.6498 126.318 27.4797C126.318 29.1496 127.778 30.2296 129.418 30.2296C130.668 30.2296 131.368 29.6696 131.798 29.0096H131.858V29.9696H133.658V25.1798C133.668 22.9699 132.008 21.7299 129.878 21.7299ZM129.648 28.5797C129.038 28.5797 128.188 28.2697 128.188 27.5197C128.188 26.5597 129.248 26.1897 130.168 26.1897C130.988 26.1897 131.378 26.3697 131.868 26.6097C131.799 27.151 131.536 27.6487 131.127 28.0109C130.719 28.3731 130.194 28.5751 129.648 28.5797ZM140.228 21.9999L138.088 27.4197H138.028L135.808 21.9999H133.798L137.128 29.5796L135.228 33.7894H137.178L142.308 21.9999H140.228ZM123.428 29.9996H125.298V17.5001H123.428V29.9996Z" fill="white"/>
<path d="M37.2119 19.42L26.5623 30.7196V30.7296C26.6775 31.1576 26.8901 31.5533 27.1835 31.8856C27.4768 32.2179 27.843 32.478 28.2534 32.6454C28.6639 32.8129 29.1074 32.8832 29.5495 32.851C29.9917 32.8187 30.4203 32.6848 30.8021 32.4595L30.8321 32.4395L42.8116 25.5298L37.2119 19.42Z" fill="#EA4335"/>
<path d="M47.9815 17.5001L47.9715 17.4901L42.8017 14.4902L36.9719 19.68L42.8217 25.5298L47.9715 22.5599C48.427 22.3133 48.8075 21.9485 49.0731 21.5038C49.3386 21.059 49.4793 20.5509 49.4804 20.033C49.4814 19.515 49.3427 19.0064 49.0789 18.5606C48.8151 18.1149 48.436 17.7485 47.9815 17.5001Z" fill="#FBBC04"/>
<path d="M26.5623 9.2804C26.5023 9.52039 26.4623 9.76038 26.4623 10.0204V29.9896C26.4623 30.2496 26.4923 30.4895 26.5623 30.7295L37.5719 19.72L26.5623 9.2804Z" fill="#4285F4"/>
<path d="M37.2919 20L42.8016 14.4902L30.8321 7.55049C30.4495 7.3217 30.0191 7.18457 29.5746 7.14983C29.1302 7.1151 28.6837 7.18371 28.2701 7.35028C27.8566 7.51686 27.4872 7.77688 27.191 8.11C26.8947 8.44312 26.6795 8.84029 26.5623 9.27043L37.2919 20Z" fill="#34A853"/>
</g>
</g>
</g>
<defs>
<clipPath id="clip0_1_116">
<rect width="166.66" height="40" fill="white" transform="translate(0.660004)"/>
</clipPath>
<clipPath id="clip1_1_116">
<rect width="166.66" height="40" fill="white" transform="translate(0.660004)"/>
</clipPath>
<clipPath id="clip2_1_116">
<rect width="166.66" height="39.9984" fill="white" transform="translate(0.660004 0.000793457)"/>
</clipPath>
</defs>
</svg>
