<svg width="25" height="25" viewBox="0 0 25 25" fill="none" xmlns="http://www.w3.org/2000/svg">
<g clip-path="url(#clip0_1_2542)">
<g clip-path="url(#clip1_1_2542)">
<path d="M4.31006 13.95C6.09315 14.1619 7.75311 14.9675 9.02282 16.2372C10.2925 17.507 11.0982 19.1669 11.3101 20.95C12.194 20.4404 12.9334 19.7138 13.4583 18.8389C13.9833 17.964 14.2764 16.9697 14.3101 15.95C15.9892 15.3593 17.4555 14.284 18.5234 12.86C19.5914 11.436 20.2132 9.72729 20.3101 7.94995C20.3101 7.1543 19.994 6.39124 19.4314 5.82863C18.8688 5.26602 18.1057 4.94995 17.3101 4.94995C15.5328 5.04686 13.8241 5.66861 12.4001 6.7366C10.9761 7.80459 9.90075 9.27084 9.31006 10.95C8.29032 10.9837 7.29602 11.2768 6.42112 11.8018C5.54623 12.3267 4.81965 13.0661 4.31006 13.95Z" stroke="#2C3E50" stroke-linecap="round" stroke-linejoin="round"/>
<path d="M7.31005 14.95C6.26928 15.5376 5.42771 16.4226 4.89321 17.4916C4.35871 18.5606 4.15565 19.7648 4.31005 20.95C5.49521 21.1044 6.69948 20.9013 7.76847 20.3668C8.83747 19.8323 9.72248 18.9908 10.31 17.95" stroke="#2C3E50" stroke-linecap="round" stroke-linejoin="round"/>
<path d="M15.3101 10.95C15.8624 10.95 16.3101 10.5022 16.3101 9.94995C16.3101 9.39767 15.8624 8.94995 15.3101 8.94995C14.7578 8.94995 14.3101 9.39767 14.3101 9.94995C14.3101 10.5022 14.7578 10.95 15.3101 10.95Z" stroke="#2C3E50" stroke-linecap="round" stroke-linejoin="round"/>
</g>
</g>
<defs>
<clipPath id="clip0_1_2542">
<rect width="24" height="24" fill="white" transform="translate(0.310059 0.949951)"/>
</clipPath>
<clipPath id="clip1_1_2542">
<rect width="24" height="24" fill="white" transform="translate(0.310059 0.949951)"/>
</clipPath>
</defs>
</svg>
