<svg width="200" height="201" viewBox="0 0 200 201" fill="none" xmlns="http://www.w3.org/2000/svg">
<g clip-path="url(#clip0_1_29)">
<g clip-path="url(#clip1_1_29)">
<g clip-path="url(#clip2_1_29)">
<path d="M200 0.589966H0V200.59H200V0.589966Z" fill="white"/>
<path d="M110.938 173.59L58.3964 173.365C56.8923 173.358 55.4043 173.072 54.0176 172.522C52.6308 171.973 51.3724 171.172 50.3141 170.164C49.2559 169.156 48.4186 167.962 47.85 166.649C47.2813 165.336 46.9926 163.931 47.0001 162.513L47.5593 38.3337C47.5647 36.9165 47.8664 35.5141 48.4472 34.2068C49.028 32.8996 49.8764 31.7131 50.9441 30.7153C52.0117 29.7174 53.2775 28.9278 54.6691 28.3916C56.0607 27.8553 57.5508 27.583 59.0542 27.5901L111.604 27.8227C113.108 27.8288 114.596 28.1144 115.984 28.6633C117.371 29.2121 118.63 30.0134 119.688 31.0214C120.747 32.0293 121.584 33.224 122.152 34.5373C122.72 35.8505 123.008 37.2565 123 38.6748L122.441 162.862C122.423 165.722 121.202 168.459 119.045 170.471C116.888 172.482 113.972 173.604 110.938 173.59Z" fill="#FF9000"/>
<path d="M111.291 31.3719L101.196 31.3257C100.866 31.3317 100.541 31.4004 100.239 31.5279C99.9368 31.6554 99.6637 31.8392 99.4354 32.0687C99.207 32.2981 99.0279 32.5688 98.9083 32.8652C98.7887 33.1616 98.7309 33.4779 98.7383 33.7958V35.5657C98.7447 35.8837 98.6858 36.1997 98.5652 36.4957C98.4446 36.7917 98.2646 37.0619 98.0355 37.2906C97.8064 37.5194 97.5328 37.7023 97.2302 37.8289C96.9276 37.9555 96.6021 38.0232 96.2724 38.0282L76.6007 37.9435C76.2698 37.9356 75.9439 37.8647 75.6415 37.735C75.3392 37.6052 75.0663 37.4192 74.8387 37.1876C74.6111 36.9559 74.4331 36.6832 74.3151 36.3851C74.197 36.087 74.1411 35.7693 74.1507 35.4503V33.6804C74.1603 33.3624 74.1046 33.0458 73.9869 32.7486C73.8693 32.4514 73.6919 32.1796 73.465 31.9486C73.2381 31.7177 72.9662 31.5322 72.6648 31.4029C72.3634 31.2735 72.0385 31.2029 71.7087 31.1949H68.1574H59.3231C57.2149 31.1948 55.1922 31.9992 53.697 33.4324C52.2017 34.8655 51.3554 36.811 51.3427 38.8439L50.8 162.051C50.8 164.08 51.6309 166.027 53.112 167.468C54.5931 168.91 56.6046 169.728 58.7086 169.747L110.661 169.985C112.769 169.985 114.792 169.181 116.287 167.748C117.782 166.314 118.629 164.369 118.641 162.336L119.2 39.067C119.2 37.0381 118.369 35.0912 116.888 33.6501C115.407 32.2089 113.396 31.3901 111.291 31.3719Z" fill="white"/>
<path d="M130 67.59H112V135.59H130V67.59Z" fill="white"/>
<path d="M152.999 121.273V95.6326C152.999 93.8269 152.273 92.2018 151.002 91.1185L136.476 77.3958C135.205 76.3124 133.752 75.59 132.118 75.59H90.3551C86.9049 75.59 84 78.4791 84 81.9093V121.271C84 124.701 86.9055 127.59 90.3551 127.59H146.646C150.095 127.591 153 124.883 153 121.272L152.999 121.273ZM98.8879 119.106C95.4377 119.106 92.5328 116.217 92.5328 112.786V90.3966C92.5328 86.9658 95.4383 84.0773 98.8879 84.0773L118.136 84.0767C121.586 84.0767 124.491 86.9658 124.491 90.396V112.786C124.491 116.217 121.586 119.105 118.136 119.105L98.8879 119.106Z" fill="white"/>
<path fill-rule="evenodd" clip-rule="evenodd" d="M136.476 77.3958L151.002 91.1185C152.273 92.2018 152.999 93.8269 152.999 95.6326V121.273C152.999 124.017 151.32 126.241 148.999 127.149C148.268 127.435 147.472 127.59 146.646 127.59H90.3551C86.9055 127.59 84 124.701 84 121.271V81.9093C84 78.4791 86.9049 75.59 90.3551 75.59H132.118C133.752 75.59 135.205 76.3124 136.476 77.3958ZM146.644 131.59H90.3551C84.7179 131.59 80 126.932 80 121.271V81.9093C80 76.249 84.7168 71.59 90.3551 71.59H132.118C135.004 71.59 137.344 72.8797 139.07 74.3513L139.148 74.4178L153.685 88.1502C155.855 90.0467 156.999 92.7821 156.999 95.6326V111.609L157 121.272C157 127.186 152.208 131.591 146.646 131.59H146.644ZM98.8879 84.0773C95.4383 84.0773 92.5328 86.9658 92.5328 90.3966V112.786C92.5328 116.217 95.4377 119.106 98.8879 119.106L118.136 119.105C121.586 119.105 124.491 116.217 124.491 112.786V90.396C124.491 86.9658 121.586 84.0767 118.136 84.0767L98.8879 84.0773ZM118.136 88.0767L98.888 88.0773C97.626 88.0773 96.5328 89.1965 96.5328 90.3966V112.786C96.5328 113.986 97.6257 115.106 98.8878 115.106L118.136 115.105C119.398 115.105 120.491 113.986 120.491 112.786V90.396C120.491 89.196 119.398 88.0768 118.136 88.0767Z" fill="#FF9000"/>
<path d="M98.8883 117.3C96.3464 117.3 94.3486 115.314 94.3486 112.786V90.3974C94.3486 87.8698 96.3457 85.8832 98.8883 85.8832H118.136C120.678 85.8832 122.676 87.8692 122.676 90.3974V92.7449H113.778C113.234 92.7449 112.871 93.1058 112.871 93.6474C112.871 94.1891 113.234 94.55 113.778 94.55H122.676V100.689H113.778C113.234 100.689 112.871 101.05 112.871 101.592C112.871 102.134 113.234 102.494 113.778 102.494H122.676V108.634H113.778C113.234 108.634 112.871 108.995 112.871 109.536C112.871 110.078 113.234 110.439 113.778 110.439H122.676V112.786C122.676 115.314 120.679 117.3 118.136 117.3H98.8883Z" fill="#40B9FF"/>
</g>
</g>
</g>
<defs>
<clipPath id="clip0_1_29">
<rect width="200" height="200" fill="white" transform="translate(0 0.589966)"/>
</clipPath>
<clipPath id="clip1_1_29">
<rect width="200" height="200" fill="white" transform="translate(0 0.589966)"/>
</clipPath>
<clipPath id="clip2_1_29">
<rect width="200" height="200" fill="white" transform="translate(0 0.589966)"/>
</clipPath>
</defs>
</svg>
