<svg width="56" height="57" viewBox="0 0 56 57" fill="none" xmlns="http://www.w3.org/2000/svg">
<path d="M56 28.0801C56 12.6161 43.464 0.0800781 28 0.0800781C12.536 0.0800781 0 12.6161 0 28.0801C0 43.5441 12.536 56.0801 28 56.0801C43.464 56.0801 56 43.5441 56 28.0801Z" fill="#F47E7E"/>
<path d="M36.6611 19.426C35.5257 18.2793 34.1748 17.3683 32.6862 16.7452C31.1975 16.1221 29.6005 15.7993 27.9867 15.7954C26.3729 15.7914 24.7743 16.1063 23.2826 16.722C21.7909 17.3378 20.4356 18.2422 19.2945 19.3833C18.1534 20.5244 17.249 21.8797 16.6333 23.3714C16.0175 24.8631 15.7026 26.4617 15.7066 28.0755C15.7106 29.6892 16.0333 31.2863 16.6564 32.775C17.2795 34.2636 18.1905 35.6144 19.3372 36.7499C20.4727 37.8966 21.8236 38.8077 23.3122 39.4307C24.8008 40.0538 26.3979 40.3766 28.0117 40.3806C29.6254 40.3845 31.2241 40.0696 32.7158 39.4539C34.2074 38.8382 35.5628 37.9338 36.7039 36.7927C37.845 35.6516 38.7494 34.2962 39.3651 32.8046C39.9808 31.3129 40.2958 29.7142 40.2918 28.1005C40.2878 26.4867 39.965 24.8896 39.342 23.401C38.7189 21.9124 37.8078 20.5615 36.6611 19.426ZM17.4992 28.088C17.4988 27.1587 17.622 26.2335 17.8656 25.3366C18.267 26.2007 18.85 26.9472 19.2464 27.8337C19.7589 28.9734 21.1348 28.6573 21.7424 29.6559C22.2816 30.5423 21.7057 31.6634 22.1093 32.5909C22.4025 33.2641 23.0937 33.4113 23.5706 33.9034C24.0579 34.4 24.0475 35.0803 24.1218 35.7278C24.2058 36.4886 24.3419 37.2427 24.5293 37.9848C24.5293 37.9902 24.5293 37.9963 24.5336 38.0017C20.4414 36.5645 17.4992 32.6637 17.4992 28.088ZM27.9992 38.588C27.4128 38.5878 26.8274 38.5388 26.2492 38.4414C26.2552 38.2932 26.2579 38.1548 26.2727 38.0586C26.4056 37.1891 26.8409 36.3387 27.4282 35.6879C28.0085 35.0459 28.8036 34.6116 29.2936 33.8832C29.7738 33.1723 29.9176 32.2152 29.7197 31.3845C29.4282 30.1573 27.7607 29.7477 26.8617 29.0822C26.3449 28.6994 25.885 28.1077 25.2063 28.0595C24.8935 28.0377 24.6315 28.1049 24.3214 28.0251C24.0371 27.9513 23.8139 27.7981 23.511 27.838C22.945 27.9124 22.5879 28.5173 21.9797 28.4352C21.4028 28.3581 20.8083 27.6827 20.6771 27.1331C20.5086 26.4266 21.0675 26.1974 21.6664 26.1345C21.9163 26.1083 22.1968 26.0798 22.4369 26.1717C22.753 26.2888 22.9023 26.5983 23.1861 26.7547C23.7182 27.0467 23.826 26.5802 23.7445 26.1077C23.6225 25.4001 23.4804 25.1119 24.1114 24.6246C24.5489 24.2888 24.923 24.046 24.853 23.4428C24.8114 23.0884 24.6173 22.9282 24.7983 22.5755C24.9356 22.307 25.3124 22.0647 25.5579 21.9045C26.1918 21.491 28.2732 21.5216 27.4228 20.3645C27.1729 20.0248 26.7118 19.4178 26.2743 19.3347C25.7275 19.2313 25.4847 19.8416 25.1035 20.1107C24.7097 20.3891 23.943 20.7052 23.5487 20.2748C23.0182 19.6956 23.9004 19.5059 24.0956 19.1012C24.1858 18.9125 24.0956 18.6505 23.9436 18.4039C24.1408 18.3208 24.3413 18.2437 24.5451 18.1726C24.6728 18.2669 24.8244 18.3237 24.9826 18.3366C25.3485 18.3607 25.6936 18.1627 26.0129 18.4121C26.3673 18.6855 26.6227 19.0312 27.093 19.1165C27.548 19.1991 28.0298 18.9338 28.1425 18.4679C28.2108 18.1846 28.1425 17.8855 28.0768 17.5929C30.1222 17.6047 32.1189 18.2172 33.819 19.3544C33.7097 19.3128 33.5789 19.3177 33.4176 19.3927C33.0857 19.5469 32.6154 19.9395 32.5765 20.3289C32.5322 20.7708 33.1841 20.8331 33.4936 20.8331C33.9585 20.8331 34.4293 20.6253 34.2795 20.0883C34.2144 19.8553 34.1258 19.613 33.9831 19.4665C34.3262 19.7046 34.6549 19.9628 34.9675 20.2398C34.9625 20.2447 34.9576 20.2491 34.9527 20.2545C34.6377 20.5827 34.2718 20.8424 34.0564 21.2416C33.9043 21.5227 33.7332 21.6562 33.4253 21.7289C33.2557 21.7688 33.0622 21.7836 32.92 21.8973C32.524 22.2091 32.7493 22.9583 33.1245 23.183C33.5986 23.4669 34.3019 23.3334 34.6596 22.9282C34.939 22.611 35.1036 22.0603 35.6062 22.0609C35.8275 22.0604 36.04 22.147 36.1979 22.302C36.4057 22.5175 36.3647 22.7188 36.409 22.9878C36.4872 23.4658 36.9089 23.2066 37.1654 22.9654C37.3523 23.2981 37.521 23.6408 37.6707 23.9919C37.3885 24.3982 37.1643 24.8412 36.4856 24.3676C36.0793 24.0838 35.8293 23.672 35.3191 23.544C34.8734 23.4346 34.4168 23.5484 33.9765 23.6244C33.4761 23.7113 32.8828 23.7496 32.5032 24.1286C32.1363 24.4939 31.9422 24.9828 31.5517 25.3498C30.7964 26.0607 30.4776 26.8367 30.9665 27.8419C31.4368 28.8082 32.4207 29.3327 33.4822 29.2638C34.525 29.1943 35.6084 28.5895 35.5783 30.1048C35.5674 30.6413 35.6795 31.0127 35.8441 31.5109C35.9967 31.9702 35.9863 32.4154 36.0213 32.8895C36.0546 33.4447 36.1414 33.9955 36.2805 34.534C35.3003 35.796 34.0446 36.8174 32.6093 37.52C31.1741 38.2226 29.5972 38.5879 27.9992 38.588Z" fill="white"/>
</svg>
