<svg width="50" height="51" viewBox="0 0 50 51" fill="none" xmlns="http://www.w3.org/2000/svg">
<path d="M40.3223 10.4023C36.2305 6.30078 30.7812 4.04492 24.9902 4.04492C13.0371 4.04492 3.31055 13.7715 3.31055 25.7246C3.31055 29.543 4.30664 33.2734 6.20117 36.5645L3.125 47.7949L14.6191 44.7773C17.7832 46.5059 21.3477 47.4141 24.9805 47.4141H24.9902C36.9336 47.4141 46.875 37.6875 46.875 25.7344C46.875 19.9434 44.4141 14.5039 40.3223 10.4023ZM24.9902 43.7617C21.748 43.7617 18.5742 42.8926 15.8105 41.252L15.1562 40.8613L8.33984 42.6484L10.1562 35.998L9.72656 35.3145C7.91992 32.4434 6.97266 29.1328 6.97266 25.7246C6.97266 15.793 15.0586 7.70703 25 7.70703C29.8145 7.70703 34.3359 9.58203 37.7344 12.9902C41.1328 16.3984 43.2227 20.9199 43.2129 25.7344C43.2129 35.6758 34.9219 43.7617 24.9902 43.7617ZM34.873 30.2656C34.3359 29.9922 31.6699 28.6836 31.1719 28.5078C30.6738 28.3223 30.3125 28.2344 29.9512 28.7812C29.5898 29.3281 28.5547 30.5391 28.2324 30.9102C27.9199 31.2715 27.5977 31.3203 27.0605 31.0469C23.877 29.4551 21.7871 28.2051 19.6875 24.6016C19.1309 23.6445 20.2441 23.7129 21.2793 21.6426C21.4551 21.2812 21.3672 20.9688 21.2305 20.6953C21.0938 20.4219 20.0098 17.7559 19.5605 16.6719C19.1211 15.6172 18.6719 15.7637 18.3398 15.7441C18.0273 15.7246 17.666 15.7246 17.3047 15.7246C16.9434 15.7246 16.3574 15.8613 15.8594 16.3984C15.3613 16.9453 13.9648 18.2539 13.9648 20.9199C13.9648 23.5859 15.9082 26.1641 16.1719 26.5254C16.4453 26.8867 19.9902 32.3555 25.4297 34.709C28.8672 36.1934 30.2148 36.3203 31.9336 36.0664C32.9785 35.9102 35.1367 34.7578 35.5859 33.4883C36.0352 32.2188 36.0352 31.1348 35.8984 30.9102C35.7715 30.666 35.4102 30.5293 34.873 30.2656Z" fill="black"/>
</svg>
