<svg width="20" height="21" viewBox="0 0 20 21" fill="none" xmlns="http://www.w3.org/2000/svg">
<path d="M17.5 9.04492H11.875V3.41992C11.875 2.72969 11.3152 2.16992 10.625 2.16992H9.375C8.68477 2.16992 8.125 2.72969 8.125 3.41992V9.04492H2.5C1.80977 9.04492 1.25 9.60469 1.25 10.2949V11.5449C1.25 12.2352 1.80977 12.7949 2.5 12.7949H8.125V18.4199C8.125 19.1102 8.68477 19.6699 9.375 19.6699H10.625C11.3152 19.6699 11.875 19.1102 11.875 18.4199V12.7949H17.5C18.1902 12.7949 18.75 12.2352 18.75 11.5449V10.2949C18.75 9.60469 18.1902 9.04492 17.5 9.04492Z" fill="black"/>
</svg>
