<svg width="56" height="57" viewBox="0 0 56 57" fill="none" xmlns="http://www.w3.org/2000/svg">
<path d="M56 28.0801C56 12.6161 43.464 0.0800781 28 0.0800781C12.536 0.0800781 0 12.6161 0 28.0801C0 43.5441 12.536 56.0801 28 56.0801C43.464 56.0801 56 43.5441 56 28.0801Z" fill="#00E0FF"/>
<path d="M32.9577 30.7205C31.5963 29.5103 29.838 28.8418 28.0165 28.8418C26.1949 28.8418 24.4366 29.5103 23.0752 30.7205C22.9601 30.8201 22.866 30.9415 22.7983 31.0777C22.7306 31.2139 22.6906 31.3622 22.6806 31.5141C22.6707 31.6659 22.6911 31.8181 22.7405 31.962C22.7899 32.1059 22.8674 32.2385 22.9685 32.3522C23.0696 32.4659 23.1923 32.5583 23.3294 32.6242C23.4666 32.6901 23.6154 32.728 23.7673 32.7359C23.9193 32.7437 24.0713 32.7213 24.2144 32.6699C24.3576 32.6186 24.4892 32.5393 24.6015 32.4366C25.5425 31.6003 26.7576 31.1384 28.0165 31.1384C29.2753 31.1384 30.4905 31.6003 31.4314 32.4366C31.6591 32.639 31.9579 32.7427 32.2621 32.7248C32.5662 32.7069 32.8508 32.5689 33.0532 32.3412C33.2556 32.1135 33.3592 31.8147 33.3413 31.5105C33.3234 31.2064 33.1855 30.9218 32.9577 30.7194V30.7205Z" fill="white"/>
<path d="M28.0156 24.1255C24.9322 24.1213 21.9633 25.2932 19.7141 27.4024C19.6002 27.5044 19.5078 27.6281 19.4424 27.7663C19.377 27.9045 19.3398 28.0543 19.333 28.207C19.3263 28.3598 19.3501 28.5123 19.403 28.6557C19.456 28.7991 19.5371 28.9305 19.6415 29.0422C19.7459 29.1539 19.8716 29.2436 20.0111 29.306C20.1507 29.3685 20.3013 29.4025 20.4541 29.4059C20.607 29.4094 20.759 29.3824 20.9012 29.3263C21.0435 29.2703 21.1731 29.1864 21.2825 29.0796C23.1088 27.3722 25.5155 26.4224 28.0156 26.4224C30.5157 26.4224 32.9225 27.3722 34.7488 29.0796C34.8582 29.1864 34.9878 29.2703 35.13 29.3263C35.2723 29.3824 35.4243 29.4094 35.5771 29.4059C35.73 29.4025 35.8806 29.3685 36.0201 29.306C36.1597 29.2436 36.2853 29.1539 36.3898 29.0422C36.4942 28.9305 36.5753 28.7991 36.6282 28.6557C36.6812 28.5123 36.705 28.3598 36.6983 28.207C36.6915 28.0543 36.6543 27.9045 36.5889 27.7663C36.5234 27.6281 36.4311 27.5044 36.3172 27.4024C34.068 25.2932 31.0991 24.1213 28.0156 24.1255Z" fill="white"/>
<path d="M39.2659 23.6967C36.1697 20.934 32.1652 19.4072 28.0156 19.4072C23.8661 19.4072 19.8616 20.934 16.7653 23.6967C16.649 23.7961 16.5536 23.9177 16.4849 24.0545C16.4163 24.1912 16.3756 24.3404 16.3654 24.4931C16.3551 24.6457 16.3755 24.799 16.4253 24.9437C16.4751 25.0884 16.5534 25.2217 16.6554 25.3357C16.7575 25.4498 16.8813 25.5423 17.0196 25.6078C17.1579 25.6733 17.3079 25.7105 17.4608 25.7172C17.6137 25.7239 17.7664 25.7 17.9099 25.6469C18.0534 25.5938 18.1849 25.5125 18.2966 25.4078C20.9717 23.022 24.4309 21.7035 28.0154 21.7035C31.5998 21.7035 35.059 23.022 37.7341 25.4078C37.9612 25.6109 38.2596 25.7154 38.5638 25.6985C38.8679 25.6815 39.1528 25.5444 39.3559 25.3173C39.559 25.0903 39.6635 24.7918 39.6465 24.4877C39.6296 24.1836 39.4925 23.8986 39.2654 23.6956L39.2659 23.6967Z" fill="white"/>
<path d="M28.0156 37.3438C28.9821 37.3438 29.7656 36.5603 29.7656 35.5938C29.7656 34.6273 28.9821 33.8438 28.0156 33.8438C27.0491 33.8438 26.2656 34.6273 26.2656 35.5938C26.2656 36.5603 27.0491 37.3438 28.0156 37.3438Z" fill="white"/>
</svg>
