<svg width="14" height="15" viewBox="0 0 14 15" fill="none" xmlns="http://www.w3.org/2000/svg">
<g clip-path="url(#clip0_1_3903)">
<g clip-path="url(#clip1_1_3903)">
<g clip-path="url(#clip2_1_3903)">
<path d="M12.6875 2.22998H1.31251C0.588747 2.22998 0 2.81873 0 3.54249V11.4175C0 12.1412 0.588747 12.73 1.31251 12.73H12.6875C13.4113 12.73 14 12.1412 14 11.4175V3.54249C14 2.81873 13.4113 2.22998 12.6875 2.22998ZM12.6875 3.10498C12.7469 3.10498 12.8035 3.11731 12.8552 3.13885L7 8.21357L1.14479 3.13885C1.19649 3.11734 1.25304 3.10498 1.31248 3.10498H12.6875ZM12.6875 11.855H1.31251C1.07112 11.855 0.874996 11.6589 0.874996 11.4175V4.06329L6.71331 9.12317C6.79578 9.1945 6.89789 9.22998 7 9.22998C7.10211 9.22998 7.20422 9.19453 7.28669 9.12317L13.125 4.06329V11.4175C13.125 11.6589 12.9289 11.855 12.6875 11.855Z" fill="#777777"/>
</g>
</g>
</g>
<defs>
<clipPath id="clip0_1_3903">
<rect width="14" height="14" fill="white" transform="translate(0 0.47998)"/>
</clipPath>
<clipPath id="clip1_1_3903">
<rect width="14" height="14" fill="white" transform="translate(0 0.47998)"/>
</clipPath>
<clipPath id="clip2_1_3903">
<rect width="14" height="14" fill="white" transform="translate(0 0.47998)"/>
</clipPath>
</defs>
</svg>
