<svg width="14" height="15" viewBox="0 0 14 15" fill="none" xmlns="http://www.w3.org/2000/svg">
<g clip-path="url(#clip0_1_2842)">
<g clip-path="url(#clip1_1_2842)">
<g clip-path="url(#clip2_1_2842)">
<path d="M12.6875 2.33008H1.31251C0.588747 2.33008 0 2.91883 0 3.64259V11.5176C0 12.2413 0.588747 12.8301 1.31251 12.8301H12.6875C13.4113 12.8301 14 12.2413 14 11.5176V3.64259C14 2.91883 13.4113 2.33008 12.6875 2.33008ZM12.6875 3.20507C12.7469 3.20507 12.8035 3.21741 12.8552 3.23895L7 8.31367L1.14479 3.23895C1.19649 3.21744 1.25304 3.20507 1.31248 3.20507H12.6875ZM12.6875 11.9551H1.31251C1.07112 11.9551 0.874996 11.759 0.874996 11.5176V4.16339L6.71331 9.22326C6.79578 9.2946 6.89789 9.33008 7 9.33008C7.10211 9.33008 7.20422 9.29463 7.28669 9.22326L13.125 4.16339V11.5176C13.125 11.759 12.9289 11.9551 12.6875 11.9551Z" fill="#777777"/>
</g>
</g>
</g>
<defs>
<clipPath id="clip0_1_2842">
<rect width="14" height="14" fill="white" transform="translate(0 0.580078)"/>
</clipPath>
<clipPath id="clip1_1_2842">
<rect width="14" height="14" fill="white" transform="translate(0 0.580078)"/>
</clipPath>
<clipPath id="clip2_1_2842">
<rect width="14" height="14" fill="white" transform="translate(0 0.580078)"/>
</clipPath>
</defs>
</svg>
