<svg width="14" height="15" viewBox="0 0 14 15" fill="none" xmlns="http://www.w3.org/2000/svg">
<g clip-path="url(#clip0_1_2098)">
<g clip-path="url(#clip1_1_2098)">
<g clip-path="url(#clip2_1_2098)">
<path d="M12.6875 2.41016H1.31251C0.588747 2.41016 0 2.9989 0 3.72267V11.5977C0 12.3214 0.588747 12.9102 1.31251 12.9102H12.6875C13.4113 12.9102 14 12.3214 14 11.5977V3.72267C14 2.9989 13.4113 2.41016 12.6875 2.41016ZM12.6875 3.28515C12.7469 3.28515 12.8035 3.29749 12.8552 3.31902L7 8.39375L1.14479 3.31902C1.19649 3.29751 1.25304 3.28515 1.31248 3.28515H12.6875ZM12.6875 12.0351H1.31251C1.07112 12.0351 0.874996 11.8391 0.874996 11.5976V4.24347L6.71331 9.30334C6.79578 9.37468 6.89789 9.41016 7 9.41016C7.10211 9.41016 7.20422 9.37471 7.28669 9.30334L13.125 4.24347V11.5977C13.125 11.8391 12.9289 12.0351 12.6875 12.0351Z" fill="#777777"/>
</g>
</g>
</g>
<defs>
<clipPath id="clip0_1_2098">
<rect width="14" height="14" fill="white" transform="translate(0 0.660156)"/>
</clipPath>
<clipPath id="clip1_1_2098">
<rect width="14" height="14" fill="white" transform="translate(0 0.660156)"/>
</clipPath>
<clipPath id="clip2_1_2098">
<rect width="14" height="14" fill="white" transform="translate(0 0.660156)"/>
</clipPath>
</defs>
</svg>
