<svg width="14" height="15" viewBox="0 0 14 15" fill="none" xmlns="http://www.w3.org/2000/svg">
<g clip-path="url(#clip0_1_2805)">
<g clip-path="url(#clip1_1_2805)">
<g clip-path="url(#clip2_1_2805)">
<path d="M9.94532 0.189941H4.05494C3.4912 0.189941 3.03613 0.647051 3.03613 1.20976V13.1711C3.03613 13.7333 3.4912 14.1899 4.05494 14.1899H9.94532C10.508 14.1899 10.9641 13.7333 10.9641 13.1711V1.20976C10.9641 0.647051 10.508 0.189941 9.94532 0.189941ZM5.54666 0.809284H8.45462C8.52808 0.809284 8.58777 0.91897 8.58777 1.05467C8.58777 1.19038 8.52808 1.30057 8.45462 1.30057H5.54666C5.47269 1.30057 5.41402 1.19038 5.41402 1.05467C5.41402 0.91897 5.47269 0.809284 5.54666 0.809284ZM7.00064 13.1834C6.64199 13.1834 6.35018 12.8916 6.35018 12.5324C6.35018 12.1733 6.64199 11.8825 7.00064 11.8825C7.35827 11.8825 7.65008 12.1733 7.65008 12.5324C7.65008 12.8916 7.35827 13.1834 7.00064 13.1834ZM10.2009 10.9545H3.79985V1.91073H10.2009V10.9545Z" fill="#777777"/>
</g>
</g>
</g>
<defs>
<clipPath id="clip0_1_2805">
<rect width="14" height="14" fill="white" transform="translate(0 0.189941)"/>
</clipPath>
<clipPath id="clip1_1_2805">
<rect width="14" height="14" fill="white" transform="translate(0 0.189941)"/>
</clipPath>
<clipPath id="clip2_1_2805">
<rect width="14" height="14" fill="white" transform="translate(0 0.189941)"/>
</clipPath>
</defs>
</svg>
