<svg width="14" height="15" viewBox="0 0 14 15" fill="none" xmlns="http://www.w3.org/2000/svg">
<g clip-path="url(#clip0_1_2061)">
<g clip-path="url(#clip1_1_2061)">
<g clip-path="url(#clip2_1_2061)">
<path d="M9.9452 0.0595703H4.05481C3.49108 0.0595703 3.03601 0.51668 3.03601 1.07939V13.0408C3.03601 13.603 3.49108 14.0596 4.05481 14.0596H9.9452C10.5079 14.0596 10.964 13.603 10.964 13.0408V1.07939C10.964 0.51668 10.5079 0.0595703 9.9452 0.0595703ZM5.54654 0.678913H8.45449C8.52796 0.678913 8.58765 0.788599 8.58765 0.924303C8.58765 1.06001 8.52796 1.1702 8.45449 1.1702H5.54654C5.47257 1.1702 5.4139 1.06001 5.4139 0.924303C5.4139 0.788599 5.47257 0.678913 5.54654 0.678913ZM7.00052 13.053C6.64187 13.053 6.35005 12.7612 6.35005 12.402C6.35005 12.0429 6.64187 11.7521 7.00052 11.7521C7.35814 11.7521 7.64996 12.0429 7.64996 12.402C7.64996 12.7612 7.35814 13.053 7.00052 13.053ZM10.2008 10.8241H3.79973V1.78036H10.2008V10.8241Z" fill="#777777"/>
</g>
</g>
</g>
<defs>
<clipPath id="clip0_1_2061">
<rect width="14" height="14" fill="white" transform="translate(0 0.0595703)"/>
</clipPath>
<clipPath id="clip1_1_2061">
<rect width="14" height="14" fill="white" transform="translate(0 0.0595703)"/>
</clipPath>
<clipPath id="clip2_1_2061">
<rect width="14" height="14" fill="white" transform="translate(0 0.0595703)"/>
</clipPath>
</defs>
</svg>
